<svg id="Слой_1" data-name="Слой 1" xmlns="http://www.w3.org/2000/svg" viewBox="0 0 35 35"><defs><style>.cls-1{fill:#d24a45;}.cls-2{fill:#f4c944;}.cls-3{fill:#efe94b;}.cls-4{fill:#fff;}</style></defs><title>fire</title><path class="cls-1" d="M16.87.05c0,.07,0,.14-.16.7a4.61,4.61,0,0,0-.21,1.5,7.4,7.4,0,0,0,.12,1.39c.05.18.2.71.38,1.3a5.83,5.83,0,0,1,.15.73l.11.64a10.62,10.62,0,0,1,0,1.74,8,8,0,0,1-.53,2.44c0,.06-.12.35-.21.66a2.81,2.81,0,0,0-.16,1.08c0,.92.08,1.13.46,1.28a2.1,2.1,0,0,0,1.07,0,2.27,2.27,0,0,0,1.1-.77,5.36,5.36,0,0,0,.53-3,9.21,9.21,0,0,1,0-1.35,2.82,2.82,0,0,0,.08-.46c0-.18,0-.37,0-.44s0-.22.06-.34a7.08,7.08,0,0,1,.13-.71c.06-.27.12-.52.12-.54l.07-.16a.42.42,0,0,0,.06-.21.37.37,0,0,1,.05-.18,3.54,3.54,0,0,0,.18-.55,5.61,5.61,0,0,1,.56-1s.09-.06.13-.14a1.83,1.83,0,0,1,.32-.35,3.52,3.52,0,0,0,.38-.42A3.25,3.25,0,0,1,22.45,2c0,.07,0,.25-.39.8l-.4.63-.13.19a.46.46,0,0,0-.08.19.54.54,0,0,1-.1.2,2.63,2.63,0,0,0-.27.82c0,.09-.06.3-.1.47a9.39,9.39,0,0,0-.08,2.52,3.78,3.78,0,0,0,.35,1,3.55,3.55,0,0,1,.23.49c0,.07.13.32.24.56A4.09,4.09,0,0,1,22,11a3.43,3.43,0,0,1,0,1.69,5.4,5.4,0,0,0-.1,1,2.22,2.22,0,0,0,.15,1,2,2,0,0,0,.29.59,1,1,0,0,0,.63.33,1.74,1.74,0,0,0,1-.43,2.3,2.3,0,0,1,.32-.36,4.74,4.74,0,0,0,.73-1.34,2.34,2.34,0,0,1,.13-.35,3.31,3.31,0,0,0,.1-.59,3.26,3.26,0,0,1,0-.46,14.56,14.56,0,0,0,.1-2,9.06,9.06,0,0,0-.1-1.71c0-.21-.08-.4-.1-.56a1,1,0,0,0,0-.25,2,2,0,0,1-.05-.29,3.69,3.69,0,0,0-.29-1,5.82,5.82,0,0,1-.35-1s0,0,0,0,0,0,0-.06a3.29,3.29,0,0,0-.11-.73.12.12,0,0,1,0-.14,1,1,0,0,0,.05-.25c0-.2.14-.36.27-.31s.14.19.11.46A2.29,2.29,0,0,0,25,5.29c.07.15.16.37.21.49l.13.32a.87.87,0,0,0,.05.12s.12.25.25.52a5.45,5.45,0,0,1,.63,1.61c.06.27.15.59.19.71A19.62,19.62,0,0,1,27,12.78,7.67,7.67,0,0,1,26.92,14a3.47,3.47,0,0,0-.11.49,2.79,2.79,0,0,1-.15.75,9.11,9.11,0,0,0-.28.88.48.48,0,0,1-.06.14,4.4,4.4,0,0,0-.16.42c-.06.17-.17.46-.25.64a3,3,0,0,0-.19.44c0,.06-.14.34-.26.62s-.23.51-.23.53-.1.23-.22.48-.24.5-.26.57a.73.73,0,0,1-.07.17,3.74,3.74,0,0,0-.16.39,2.65,2.65,0,0,1-.15.39,4.31,4.31,0,0,0-.23,1,1.87,1.87,0,0,0,.37,1.37,1.86,1.86,0,0,0,1.06.29,2.38,2.38,0,0,0,1.62-1A7.48,7.48,0,0,0,28,20.32c0-.2.07-.42.09-.49a.53.53,0,0,0,.05-.2,6.05,6.05,0,0,1,.19-1c0-.17.1-.46.15-.66a3.88,3.88,0,0,1,.14-.52c0-.08.08-.27.13-.41a1.51,1.51,0,0,1,.11-.32,1.2,1.2,0,0,0,.1-.27c.16-.57.79-1.57,1-1.57a.51.51,0,0,0,.2-.14c.19-.19.29-.19.58,0a2.76,2.76,0,0,1-.33.33,2,2,0,0,0-.6.76,3,3,0,0,0-.23.53.21.21,0,0,1-.05.13.4.4,0,0,0-.07.22c0,.09-.05.26-.08.39s-.07.28-.08.36,0,.23-.05.32a6.11,6.11,0,0,0,0,1.54c0,.14.11.42.16.62a4,4,0,0,0,.29.79A4.57,4.57,0,0,1,30.14,22a3.74,3.74,0,0,1,.06,1.44,9.72,9.72,0,0,1-.45,1.2c-.05.11-.09.21-.1.22a1.31,1.31,0,0,1-.22.4c0,.05-.05.09,0,.09a3.87,3.87,0,0,1-.43.78,1.78,1.78,0,0,0-.12.18.69.69,0,0,1-.15.22,4.2,4.2,0,0,0-.44.67.82.82,0,0,1-.13.23,3.87,3.87,0,0,0-.38,1,.87.87,0,0,0,.31.47,1.17,1.17,0,0,0,.3.1l.45.08a.71.71,0,0,0,.74-.14c1-.61,1.44-1.54,2-3.92a2.26,2.26,0,0,0,.08-.41,8.43,8.43,0,0,1,.41-1.24,1,1,0,0,0,.1-.26.58.58,0,0,1,.1-.19.73.73,0,0,0,.12-.23,4.36,4.36,0,0,1,.49-.93l.19-.26a6.19,6.19,0,0,1,.9-.9,2.42,2.42,0,0,1,1-.45c.16.06,0,.28-.34.43a3.07,3.07,0,0,0-.53.38,2.11,2.11,0,0,0-.6.82A4.46,4.46,0,0,0,33,23.32a2.28,2.28,0,0,0,0,.91,1.85,1.85,0,0,1,.07.42c0,.17,0,.35,0,.39a.64.64,0,0,1,0,.19c0,.06.08.27.15.46a1.63,1.63,0,0,1,.13.43c0,.05,0,.09.06.09s0,0,0,.06a.46.46,0,0,0,0,.22,4.61,4.61,0,0,1,0,1.9A3,3,0,0,1,33,29.73a3.89,3.89,0,0,0-.29.32c-.36.42-.68.76-1,1a3.52,3.52,0,0,1-.94.69.11.11,0,0,0-.08,0s-.07.06-.13.07a2.56,2.56,0,0,0-.35.15,4.74,4.74,0,0,1-.75.22c-.9.17-1.06.2-1.29.22a9.92,9.92,0,0,0-1.32.2c-.56.15-.61.19-1.85,1.23a4.28,4.28,0,0,1-.61.36c-.46.21-.49.21-1.66.19-.37,0-1.15,0-1.76.05l-1.09,0-.58-.13a11.06,11.06,0,0,0-1.13-.18l-.89-.1a6.31,6.31,0,0,0-1,0c-.37,0-1,0-1.5,0-.65,0-.83,0-.87.08s0,.05,0,0-.07-.09-.83-.08a36.29,36.29,0,0,0-4.09.31,8.61,8.61,0,0,0-1.21.29A2.91,2.91,0,0,1,6.13,35,3,3,0,0,1,5,34.89,2.72,2.72,0,0,1,4,34.34,3,3,0,0,0,3.47,34a4,4,0,0,1-1.09-.67.56.56,0,0,0-.15-.11,4.18,4.18,0,0,1-.8-.73.54.54,0,0,0-.12-.18,4.93,4.93,0,0,1-.58-1,3.94,3.94,0,0,1-.3-1.14A.62.62,0,0,0,.37,30a5.57,5.57,0,0,1-.2-2.1l.07-.37c0-.09,0-.28.08-.41a16.72,16.72,0,0,0,0-2.53A5.29,5.29,0,0,0,0,23C0,22.85,0,22.8.16,23a4,4,0,0,1,.5,1c0,.08,0,.26,0,.39s.05.46.08.71,0,.63.06.82a1,1,0,0,0,0,.36,2.57,2.57,0,0,1,0,.62A5.76,5.76,0,0,0,1,28.22c0,.12.06.34.08.49a2.9,2.9,0,0,0,.66,1.5c.28.39.31.42.58.52a.73.73,0,0,0,.71,0,.9.9,0,0,0,.43-.51,4.68,4.68,0,0,0,.11-2.27c0-.07-.07-.35-.11-.61a5.2,5.2,0,0,0-.2-.84c-.07-.19-.2-.63-.3-1s-.22-.83-.29-1.07a4.5,4.5,0,0,1-.15-.79c0-.19-.06-.48-.09-.66a6.91,6.91,0,0,1,.09-1.93,3,3,0,0,0,.07-.64,2.24,2.24,0,0,1,.07-.88c0-.22.09-.47.11-.56A2.93,2.93,0,0,1,3,18.2a.13.13,0,0,0,0-.1,8.57,8.57,0,0,1,.5-1.37c.12-.28.22-.52.22-.54S3.89,16,4,15.7s.3-.65.38-.86.18-.5.23-.62a3.66,3.66,0,0,0-.09-1.84c-.07-.22-.08-.26,0-.26a2.32,2.32,0,0,1,.51,1A6.68,6.68,0,0,1,5,15.76,10.58,10.58,0,0,0,5,18.2c0,.19.08.49.1.65a3.45,3.45,0,0,0,.2.84s.1.23.16.41c.29.79.73,1.42,1.09,1.52a1.26,1.26,0,0,0,1.21-.38,1.87,1.87,0,0,0,.57-1.09,8,8,0,0,0-.12-2.23L8,17.11c-.06-.28-.12-.54-.14-.58a3.67,3.67,0,0,1-.1-.53,11.62,11.62,0,0,1-.13-2.07,11.4,11.4,0,0,1,0-1.33s0-.09,0-.19A11.68,11.68,0,0,1,8,11.17.82.82,0,0,0,8,11,.1.1,0,0,1,8.08,11a1.47,1.47,0,0,0,.21-.57.32.32,0,0,1,.29-.31c.11,0,.12,0,.1.11-.1.31-.3,1.07-.34,1.28a15.34,15.34,0,0,0-.05,2.23c0,.09.05.26.07.37a2.3,2.3,0,0,0,.91,1.76,1.39,1.39,0,0,0,1.38-.22,1.69,1.69,0,0,0,.42-.54.05.05,0,0,1,0-.05s.05,0,.05-.07,0-.07,0-.07a4.21,4.21,0,0,0,.47-1.31,2.77,2.77,0,0,0,0-1c0-.3-.06-.78-.06-1.07a4.49,4.49,0,0,0-.12-1.21,12.66,12.66,0,0,1-.36-2.1s0-.26,0-.53a11,11,0,0,1,.33-1.78,4.16,4.16,0,0,0,.19-.58A1.7,1.7,0,0,1,12,4.62a2.58,2.58,0,0,0,.47-.83A2,2,0,0,1,13,3.18c.07,0,0,.32-.09.45a.4.4,0,0,0-.07.2.23.23,0,0,1,0,.14.15.15,0,0,0,0,.09l-.07.26c0,.11-.06.34-.08.51s-.05.39-.06.47a12.6,12.6,0,0,0-.06,2.25,2.63,2.63,0,0,0,.12.68.52.52,0,0,1,.06.15.43.43,0,0,0,.1.22,2.64,2.64,0,0,1,.18.3.93.93,0,0,0,.69.44c.26,0,.37,0,.44-.06s.06,0,.06,0,0,0,.09,0a1.57,1.57,0,0,1,.23-.13.39.39,0,0,0,.14-.1,1.24,1.24,0,0,1,.19-.24,5.19,5.19,0,0,0,.78-1.6,9.89,9.89,0,0,0,.08-2.46c0-.47,0-.87,0-.89s0,0,0-.05,0-.3,0-.64a3.84,3.84,0,0,1,.09-.93s.07-.18.11-.31A3.35,3.35,0,0,1,16,1.41c.06-.12.16-.34.22-.49a1.2,1.2,0,0,1,.21-.37,1.42,1.42,0,0,0,.23-.33c.13-.24.15-.26.18-.17Z"/><path class="cls-1" d="M16.87.05"/><path class="cls-2" d="M15.5,9.61c-.05.11-.18.51-.29.89A3.49,3.49,0,0,0,15,12a2.75,2.75,0,0,0,.34,1.71,2.4,2.4,0,0,0,1,.72,3.84,3.84,0,0,0,2.3-.23,3.43,3.43,0,0,0,1.94-2.86l.06-.39.06.39a1.83,1.83,0,0,1-.05.86,6.93,6.93,0,0,0,0,2.45A2.51,2.51,0,0,0,22,16.44a1.7,1.7,0,0,0,.81.2A2.74,2.74,0,0,0,24.68,16a1.2,1.2,0,0,1,.2-.15c0,.12-.61,1.57-1.23,2.92a7.63,7.63,0,0,0-.89,2.92,2.85,2.85,0,0,0,.64,2.16,1.78,1.78,0,0,0,1.1.63,2.33,2.33,0,0,0,1,.11,3.57,3.57,0,0,0,.73-.09,6.35,6.35,0,0,0,1.28-.74,4,4,0,0,0,1-1.31l.18-.41.08-.19.06.24a1.9,1.9,0,0,1,.07.45,5.33,5.33,0,0,1-.57,1.63,7.7,7.7,0,0,1-.82,1.39c-1,1.5-1.33,2.59-.93,3.35a2.19,2.19,0,0,0,.83.85,4.26,4.26,0,0,0,2.17.27,4.28,4.28,0,0,0,1.74-1.35,6.2,6.2,0,0,0,.86-1.62l.14-.42,0,.29a2.51,2.51,0,0,1-.13,1.17,4,4,0,0,1-.78,1c-.86,1-1,1.12-1.59,1.38a7.59,7.59,0,0,1-2.59.56,5.39,5.39,0,0,0-1.75.49,6.46,6.46,0,0,0-.74.55c-1.11.92-1,.88-2.16.86-.5,0-1.29,0-1.76,0A3.24,3.24,0,0,1,19.41,33a8.34,8.34,0,0,0-1.08-.17l-.94-.11a10,10,0,0,0-1.44,0c-.57,0-1.65,0-2.41,0A22.11,22.11,0,0,0,7,33.4a1.88,1.88,0,0,1-.93.11c-.76,0-.91,0-1.33-.4A4.15,4.15,0,0,0,4,32.63a4.28,4.28,0,0,1-.74-.45,3.1,3.1,0,0,0-.39-.27l-.16-.08.28,0a2.16,2.16,0,0,0,1.57-1.24,2.42,2.42,0,0,0,.29-1,7.11,7.11,0,0,0,0-2c0-.14-.09-.51-.14-.83a6.44,6.44,0,0,0-.18-.75c-.07-.16-.19-.59-.63-2.14a2.94,2.94,0,0,1-.1-.53,5.59,5.59,0,0,0-.07-.63,4.93,4.93,0,0,1,.1-1.83,3.38,3.38,0,0,0,.08-.72,1,1,0,0,1,0-.38,1.66,1.66,0,0,1,.21.45A5.68,5.68,0,0,0,5,21.85a1.93,1.93,0,0,0,1.71.8A2.44,2.44,0,0,0,8.49,22a3.15,3.15,0,0,0,.87-1.33,3.45,3.45,0,0,0,.15-1.54A5.51,5.51,0,0,0,9.26,17c0-.08,0-.09.37-.09a2.72,2.72,0,0,0,1.72-.59,4.59,4.59,0,0,0,1.18-1.67,4.52,4.52,0,0,0,.34-2.11c0-.38,0-1,0-1.36a7.79,7.79,0,0,0-.05-.82c0-.14,0-.16.05-.13l.52.09a1.61,1.61,0,0,0,.79,0,3.1,3.1,0,0,0,1.32-.72l.13-.16Z"/><path class="cls-2" d="M15.5,9.61"/><path class="cls-3" d="M13.92,14.14a4.35,4.35,0,0,0,1.23,1.06,4.16,4.16,0,0,0,.8.29,5.34,5.34,0,0,0,3-.33.81.81,0,0,1,.28-.1,3.51,3.51,0,0,1,.19.39,3.32,3.32,0,0,0,.81,1.19,2.38,2.38,0,0,0,.82.62,3.78,3.78,0,0,0,1.18.39l.14,0-.26.54a11.76,11.76,0,0,0-.7,1.85,4.21,4.21,0,0,0-.18,1.39,3.82,3.82,0,0,0,.08,1.32,3.67,3.67,0,0,0,1.78,2.41,4.63,4.63,0,0,0,1.89.45h.52l-.2.4a4.11,4.11,0,0,0-.45,1.87,2.4,2.4,0,0,0,.37,1.48c.12.23.23.43.23.44s0,0-.07,0a3.76,3.76,0,0,0-.57.24,4.17,4.17,0,0,0-1,.65c-.27.22-.57.47-.68.54l-.2.14-.94,0c-.52,0-1.2,0-1.52.05a2.84,2.84,0,0,1-1.07-.07,9.91,9.91,0,0,0-1.06-.16l-.91-.11c-.39-.06-5.19,0-6.55.05-.84,0-2.38.19-2.81.26a16.37,16.37,0,0,0-1.73.42A1.25,1.25,0,0,1,5.8,32a.59.59,0,0,1-.56-.2L5,31.56l.13-.16a5.51,5.51,0,0,0,.62-1.32A9.85,9.85,0,0,0,5.83,27l-.16-.85a7.17,7.17,0,0,0-.24-1c-.08-.23-.22-.69-.31-1s-.18-.65-.2-.69,0-.05.32,0a5.3,5.3,0,0,0,2.18.08,4.06,4.06,0,0,0,1.77-1,4,4,0,0,0,1.18-1.79,5.21,5.21,0,0,0,.22-2l0-1,.59-.28a4,4,0,0,0,1.64-1.38,5.76,5.76,0,0,0,.91-1.82l.11-.36Z"/><path class="cls-3" d="M13.92,14.14"/><path class="cls-3" d="M14.68,16.36a5,5,0,0,0,.88.3,4,4,0,0,0,1.45.1,6.89,6.89,0,0,0,1.18-.1l.26-.07.13.2a9,9,0,0,0,.66.72,3.41,3.41,0,0,0,.86.7c.18.09.33.19.33.23a2.07,2.07,0,0,1-.13.36c-.06.17-.19.58-.29.92a5.28,5.28,0,0,0-.18,1.69,4.71,4.71,0,0,0,.11,1.64,5,5,0,0,0,.46,1.19,3.61,3.61,0,0,0,.89,1.18,2.87,2.87,0,0,0,1,.8,6.17,6.17,0,0,0,.86.36c.31.09.36.12.33.19a6.84,6.84,0,0,0-.06.94,4.26,4.26,0,0,0,.06,1.13c.07.28.07.28-.05.36s-.32.24-.57.45l-.43.38-.92,0A7.88,7.88,0,0,1,19.27,30a21.56,21.56,0,0,0-4.81-.23c-1.67,0-3.43,0-3.92.06a28.84,28.84,0,0,0-3.33.37c-.15,0-.17,0-.14-.06s0-.35.09-.66a16,16,0,0,0-.06-2.81c0-.14-.09-.5-.15-.81s-.12-.64-.15-.74c-.08-.28-.07-.29.24-.29a4.63,4.63,0,0,0,2.26-.79,8.7,8.7,0,0,0,1.53-1.43,6.3,6.3,0,0,0,.73-1.38,4.5,4.5,0,0,0,.3-1.79l0-.92.31-.16A6.58,6.58,0,0,0,14,16.68a3.4,3.4,0,0,1,.36-.49l.37.17Z"/><path class="cls-3" d="M14.68,16.36"/><path class="cls-4" d="M15,17.6a4.82,4.82,0,0,0,1.54.12h1.08l.47.45.46.45-.15.54a5.76,5.76,0,0,0-.18,1.9l0,1.35.16.66a5,5,0,0,0,.57,1.43l.4.78.73.73a3.74,3.74,0,0,0,1.26,1l.52.25v.5c0,.69,0,.68-1,.72l-.92,0a4.12,4.12,0,0,1-.7-.1,24,24,0,0,0-5.14-.22,54.4,54.4,0,0,0-5.67.18l-.19,0,0-1A10,10,0,0,0,8.12,26c-.1-.43-.11-.4.08-.44a9.79,9.79,0,0,0,1.59-.77A13.06,13.06,0,0,0,11.66,23a8.88,8.88,0,0,0,.88-1.67,5.7,5.7,0,0,0,.36-1.72l0-.61.82-.77.82-.78.45.12Z"/><path class="cls-4" d="M15,17.6"/></svg>